
<svg width="288px" height="288px" viewBox="0 0 288 288" version="1.1" xmlns="http://www.w3.org/2000/svg" xmlns:xlink="http://www.w3.org/1999/xlink">
    <!-- Generator: Sketch 49 (51002) - http://www.bohemiancoding.com/sketch -->
    <desc>Created by Jessie with Sketch.</desc>
    <defs></defs>
    <g id="Icons" stroke="none" stroke-width="1" fill="none" fill-rule="evenodd">
        <g id="Artboard" transform="translate(-456.000000, -53.000000)" fill="#FFFFFF">
            <path d="M600,341 C520.470996,341 456,276.529004 456,197 C456,117.470996 520.470996,53 600,53 C679.529004,53 744,117.470996 744,197 C744,276.529004 679.529004,341 600,341 Z M662.433615,286.512249 C671.752882,283.283305 680.382356,277.553701 687.227935,269.430536 C707.094308,245.856512 704.413672,211.050847 681.240565,191.689908 C659.423229,173.461703 627.219566,175.422668 606.946535,195.388224 C628.921776,202.218159 644.393855,212.943621 653.362775,227.564611 C662.400501,242.297771 665.424115,261.946983 662.433615,286.512249 Z M550.873939,291.313715 C558.341995,297.735264 567.640142,302.311673 578.128177,304.153045 C608.565227,309.496842 637.497662,289.782492 642.750578,260.119811 C647.696167,232.192581 629.888756,205.403788 602.386897,197.905096 C607.434078,220.269352 605.841485,238.973685 597.609118,254.018095 C589.313593,269.177922 573.7352,281.609796 550.873939,291.313715 Z M490.676082,203.258324 C488.82487,212.908816 489.493543,223.214829 493.136,233.179366 C503.706676,262.097187 535.319747,277.188502 563.74577,266.886761 C590.508696,257.187735 604.904947,228.437977 597.676119,200.973729 C580.74806,216.50805 563.683387,224.486921 546.4821,224.910341 C529.148849,225.337009 510.546842,218.11967 490.676082,203.258324 Z M539.121668,106.54176 C529.8024,109.770703 521.172927,115.500308 514.327348,123.623473 C494.460975,147.197496 497.141611,182.003161 520.314718,201.364101 C542.132054,219.592306 574.335717,217.63134 594.608747,197.665784 C572.633507,190.83585 557.161427,180.110388 548.192508,165.489397 C539.154781,150.756238 536.131168,131.107025 539.121668,106.54176 Z M650.681344,101.740293 C643.213287,95.3187441 633.915141,90.742336 623.427106,88.9009639 C592.990056,83.5571666 564.057621,103.271517 558.804704,132.934197 C553.859116,160.861428 571.666527,187.65022 599.168386,195.148913 C594.121204,172.784657 595.713797,154.080324 603.946165,139.035914 C612.24169,123.876086 627.820083,111.444213 650.681344,101.740293 Z M709.679012,189.665632 C711.530224,180.015139 710.861551,169.709127 707.219094,159.744589 C696.648418,130.826768 665.035346,115.735454 636.609323,126.037195 C609.846398,135.73622 595.450147,164.485978 602.678975,191.950227 C619.607034,176.415905 636.671707,168.437034 653.872994,168.013615 C671.206245,167.586947 689.808251,174.804286 709.679012,189.665632 Z" id="Codewars" transform="translate(600.000000, 197.000000) rotate(-10.000000) translate(-600.000000, -197.000000) "></path>
        </g>
    </g>
</svg>
