
<svg width="289px" height="289px" viewBox="0 0 289 289" version="1.1" xmlns="http://www.w3.org/2000/svg" xmlns:xlink="http://www.w3.org/1999/xlink">
    <!-- Generator: Sketch 49 (51002) - http://www.bohemiancoding.com/sketch -->
    <desc>Created by Jessie with Sketch.</desc>
    <defs></defs>
    <g id="Icons" stroke="none" stroke-width="1" fill="none" fill-rule="evenodd">
        <g id="Artboard" transform="translate(-766.000000, -53.000000)" fill="#FFFFFF">
            <path d="M910.5,342 C830.694854,342 766,277.305146 766,197.5 C766,117.694854 830.694854,53 910.5,53 C990.305146,53 1055,117.694854 1055,197.5 C1055,277.305146 990.305146,342 910.5,342 Z M850.585271,260 C847.500611,260 845,262.462434 845,265.5 C845,268.537566 847.500611,271 850.585271,271 L970.414729,271 C973.499389,271 976,268.537566 976,265.5 C976,262.462434 973.499389,260 970.414729,260 L850.585271,260 Z M866.099302,202.51965 C863.966897,232.452686 896.884913,247.060665 896.884913,244.765834 C896.884913,242.471003 876.531177,223.296719 890.944854,211.823686 C905.358531,200.350652 895.372844,185.639412 896.884913,183.229947 C898.396982,180.820482 903.244793,185.36506 906.398168,190.674412 C909.551543,195.983764 903.816275,215.512513 915.378681,215.512513 C926.941087,215.512513 918.965473,198.334743 922.107604,196.953236 C925.249734,195.571728 934.567455,200.47779 934.567455,218.17785 C934.567455,235.87791 917.068749,242.591129 918.933913,244.765834 C920.799078,246.940538 956.471635,232.915637 957.944933,202.51965 C959.418231,172.123664 930.865736,145.585286 927.784831,147.584081 C924.703927,149.582875 938.281897,164.124361 932.391971,167.276304 C923.409613,172.083134 921.373174,164.330279 918.933913,153.819705 C913.603711,130.852296 884.448435,121.00199 881.544924,123.333986 C878.641413,125.665983 898.914719,133.554413 890.944854,153.819705 C882.974988,174.084997 868.231707,172.586615 866.099302,202.51965 Z M988.249345,279.058462 C1009.08847,258.48722 1022,229.931101 1022,198.364874 C1022,165.777969 1008.24,136.398979 986.203178,115.701016 L986.222222,115.680404 C986.185553,115.658692 986.148964,115.637191 986.112456,115.6159 C985.896821,115.413807 985.680396,115.212545 985.463186,115.012117 L985.315237,115.177772 C981.881297,113.409957 979.213976,113.632236 977.313275,115.844609 C975.248399,118.248078 975.618493,121.006945 978.423555,124.121212 L978.64601,123.880441 C998.475712,142.54512 1010.85344,169.012167 1010.85344,198.364874 C1010.85344,227.481782 998.673782,253.759205 979.122463,272.397983 L979.346662,272.606152 C977.479032,275.205087 977.620307,277.494587 979.770488,279.474652 C981.842334,281.38258 984.294026,281.500659 987.125564,279.828889 L987.296787,279.987888 C987.580804,279.713977 987.863395,279.438603 988.144548,279.161778 C988.185181,279.132645 988.225887,279.103166 988.266667,279.07334 L988.249349,279.058465 Z M832.750651,279.058465 L832.733333,279.07334 C832.774113,279.103166 832.814819,279.132645 832.855452,279.161778 C833.136605,279.438603 833.419196,279.713977 833.703213,279.987888 L833.874436,279.828889 C836.705974,281.500659 839.157666,281.38258 841.229512,279.474652 C843.379693,277.494587 843.520968,275.205087 841.653338,272.606152 L841.877537,272.397983 C822.326218,253.759205 810.146559,227.481782 810.146559,198.364874 C810.146559,169.012167 822.524288,142.54512 842.35399,123.880441 L842.576445,124.121212 C845.381507,121.006945 845.751601,118.248078 843.686725,115.844609 C841.786024,113.632236 839.118703,113.409957 835.684763,115.177772 L835.536814,115.012117 C835.319604,115.212545 835.103179,115.413807 834.887544,115.6159 C834.851036,115.637191 834.814447,115.658692 834.777778,115.680404 L834.796822,115.701016 C812.760003,136.398979 799,165.777969 799,198.364874 C799,229.931101 811.911528,258.48722 832.750655,279.058462 Z" id="FCC"></path>
        </g>
    </g>
</svg>
