
<svg width="528px" height="970px" viewBox="0 0 528 970" version="1.1" xmlns="http://www.w3.org/2000/svg" xmlns:xlink="http://www.w3.org/1999/xlink">
    <!-- Generator: Sketch 49.1 (51147) - http://www.bohemiancoding.com/sketch -->
    <desc>Created with Sketch.</desc>
    <defs></defs>
    <g id="Page-2" stroke="none" stroke-width="1" fill="none" fill-rule="evenodd">
        <g id="Artboard" transform="translate(-1760.000000, -509.000000)" fill="#FFFFFF">
            <g id="JB" transform="translate(1760.000000, 509.000000)">
                <path d="M357,599.87373 L357,600.770861 C357,607.457252 356.303808,609.881898 354.996505,612.326343 C354.830524,612.6367 354.654692,612.938578 354.469183,613.231802 C351.974613,618.349387 347.798187,620.693955 342.674877,619.821376 C341.336416,619.939736 339.738091,620 337.770861,620 L213.229139,620 C206.542748,620 204.118102,619.303808 201.673657,617.996505 C199.229213,616.689202 197.310798,614.770787 196.003495,612.326343 C194.696192,609.881898 194,607.457252 194,600.770861 L194,480.765385 L194,139.234615 C194,127.917281 204.946638,109.783896 218.45,98.7325669 L332.55,5.35162418 C346.053362,-5.69970523 357,0.915128924 357,20.1262698 L357,599.87373 Z M446.5,449 C491.511207,449 528,487.055796 528,534 C528,580.944204 491.511207,619 446.5,619 C401.488793,619 365,580.944204 365,534 C365,487.055796 401.488793,449 446.5,449 Z" id="Combined-Shape"></path>
                <path d="M-2.83161459e-14,370.12627 L-2.84217094e-14,369.229139 C-2.84217094e-14,362.542748 0.696192084,360.118102 2.00349528,357.673657 C2.16947628,357.3633 2.34530837,357.061422 2.53081742,356.768198 C5.02538694,351.650613 9.20181302,349.306045 14.3251227,350.178624 C15.6635844,350.060264 17.2619095,350 19.229139,350 L143.770861,350 C150.457252,350 152.881898,350.696192 155.326343,352.003495 C157.770787,353.310798 159.689202,355.229213 160.996505,357.673657 C162.303808,360.118102 163,362.542748 163,369.229139 L163,550.002738 L163,830.765385 C163,842.082719 152.053362,860.216104 138.55,871.267433 L24.45,964.648376 C10.9466379,975.699705 5.68434189e-14,969.084871 5.68434189e-14,949.87373 L-2.84217094e-14,370.12627 Z M81.5,341 C36.4887929,341 0,302.944204 0,256 C0,209.055796 36.4887929,171 81.5,171 C126.511207,171 163,209.055796 163,256 C163,302.944204 126.511207,341 81.5,341 Z" id="Combined-Shape"></path>
            </g>
        </g>
    </g>
</svg>
