
<svg width="290px" height="285px" viewBox="0 0 290 285" version="1.1" xmlns="http://www.w3.org/2000/svg" xmlns:xlink="http://www.w3.org/1999/xlink">
    <!-- Generator: Sketch 49 (51002) - http://www.bohemiancoding.com/sketch -->
    <desc>Created by Jessie with Sketch.</desc>
    <defs></defs>
    <g id="Icons" stroke="none" stroke-width="1" fill="none" fill-rule="evenodd">
        <g id="Artboard" transform="translate(-154.000000, -53.000000)" fill="#FFFFFF">
            <path d="M257.18302,287.683051 C244.917002,281.516836 244.6145,275.081407 238.286428,269.043811 C231.206047,262.28844 222.456233,260.042912 215.728942,258.421487 C209.001651,256.800061 192.188946,261.176794 194.159487,264.487508 C196.130029,267.798222 215.248863,264.487508 227.676697,281.299541 C240.104531,298.111574 242.480144,301.495352 256.239808,307.50872 C256.478542,307.613054 256.720423,307.713855 256.96545,307.811124 C257.213737,316.459099 257.835331,326.309981 258.830233,337.36377 C198.289241,319.945148 154,264.144727 154,198 C154,117.918711 218.918711,53 299,53 C379.081289,53 444,117.918711 444,198 C444,262.602222 401.752337,317.336973 343.378374,336.082891 C344.858827,298.241647 343.694916,275.214232 339.88664,267.000646 C337.932574,262.786169 335.468756,259.38717 332.30986,256.715886 C352.891362,251.894917 368.390053,242.705133 375.371031,235.34266 C385.822978,224.319539 390.83581,204.555686 390.83581,185.042714 C390.83581,170.912277 383.202648,155.886772 373.749291,144.407715 C375.472829,140.117681 376.526931,136.769341 376.911596,134.362695 C377.51997,130.556427 377.51997,122.435529 376.911596,110 C366.111531,110.467828 358.437786,111.512974 353.890361,113.135438 C349.889242,114.562987 344.866828,117.665385 338.823119,122.442631 C328.120967,119.751309 314.76839,118.138921 298.711345,117.816492 C284.270736,117.526522 269.865555,119.8316 258.031337,123.223853 C252.111255,118.570549 247.181359,115.541078 243.241648,114.135438 C238.694224,112.512974 231.020479,111.467828 220.220413,111 C219.612039,123.435529 219.612039,131.556427 220.220413,135.362695 C220.608522,137.790885 221.678106,141.177704 223.429166,145.523153 C210.679181,160.927849 206.430788,172.936762 206.430788,188.89675 C206.430788,208.150382 208.734346,221.546999 221.969607,235.34266 C230.910212,244.661823 247.166514,252.423523 268.622286,256.634958 C265.83404,259.203952 263.43968,262.578812 261.286672,267.000646 C259.144583,271.400055 257.776702,278.294191 257.183027,287.683054 Z" id="Github"></path>
        </g>
    </g>
</svg>
