
<svg width="281px" height="281px" viewBox="0 0 281 281" version="1.1" xmlns="http://www.w3.org/2000/svg" xmlns:xlink="http://www.w3.org/1999/xlink">
    <!-- Generator: Sketch 49 (51002) - http://www.bohemiancoding.com/sketch -->
    <desc>Created by Jessie with Sketch.</desc>
    <defs></defs>
    <g id="Icons" stroke="none" stroke-width="1" fill="none" fill-rule="evenodd">
        <g id="Artboard-2" transform="translate(0.000000, -1.000000)" fill="#FFFFFF">
            <path d="M151,121.142226 L151,108 L116,108 L116,208 L151,208 L151,154 C151.669097,140.666667 157.723689,134 169.163777,134 C180.187198,134 185.799272,140.189888 186,152.569664 L186,153.972869 C185.999859,153.98191 185.999715,153.990953 185.999568,154 L186,208 L221,208 L221,145.195122 L220.83768,145.152478 C216.942343,120.384157 204.974541,108 184.934273,108 C165.084788,108 155.940356,113.915971 151,121.142226 Z M140.5,282 C62.9039927,282 0,219.096007 0,141.5 C0,63.9039927 62.9039927,1 140.5,1 C218.096007,1 281,63.9039927 281,141.5 C281,219.096007 218.096007,282 140.5,282 Z M77.5,95 C87.1649831,95 95,87.1649831 95,77.5 C95,67.8350169 87.1649831,60 77.5,60 C67.8350169,60 60,67.8350169 60,77.5 C60,87.1649831 67.8350169,95 77.5,95 Z M60,108 L60,208 L95,208 L95,108 L60,108 Z" id="Combined-Shape"></path>
        </g>
    </g>
</svg>
